<svg xmlns="http://www.w3.org/2000/svg" width="1097.103" height="255.784" viewBox="0 0 1097.103 255.784"><defs><style>.a{mix-blend-mode:difference;isolation:isolate;}.b{fill:#fff;}</style></defs><g class="a" transform="translate(-542.25 -478.132)"><path class="b" d="M19.588-37.17a3.936,3.936,0,0,1-2.891-.855,2.976,2.976,0,0,1-.826-2.154v-.944a2.976,2.976,0,0,1,.826-2.154,3.936,3.936,0,0,1,2.891-.855,3.936,3.936,0,0,1,2.891.855,2.976,2.976,0,0,1,.826,2.154v.944a2.976,2.976,0,0,1-.826,2.154A3.936,3.936,0,0,1,19.588-37.17ZM6.254-4.071H17.228v-22.3H6.254v-4.071H21.948V-4.071H32.214V0H6.254ZM41.182,0V-30.444H45.9v4.956h.236a12.115,12.115,0,0,1,1.18-2.153,7.552,7.552,0,0,1,1.741-1.8,8.67,8.67,0,0,1,2.449-1.239,10.46,10.46,0,0,1,3.3-.472,10.094,10.094,0,0,1,7.67,3.038q2.891,3.039,2.891,8.585V0h-4.72V-18.7q0-4.189-1.829-6.225a6.847,6.847,0,0,0-5.369-2.035,10.94,10.94,0,0,0-2.773.354,7.933,7.933,0,0,0-2.419,1.062,5.446,5.446,0,0,0-1.711,1.829,5.088,5.088,0,0,0-.649,2.6V0ZM110.92-4.071h10.62V-39.589H110.92V-43.66h15.34V-4.071h10.62V0H110.92ZM159.3.708a14.228,14.228,0,0,1-5.753-1.121,12.023,12.023,0,0,1-4.366-3.215,14.378,14.378,0,0,1-2.743-5.015,21.339,21.339,0,0,1-.944-6.579,21.413,21.413,0,0,1,.944-6.549,14.342,14.342,0,0,1,2.743-5.044,12.023,12.023,0,0,1,4.366-3.215,14.228,14.228,0,0,1,5.753-1.121,14.228,14.228,0,0,1,5.753,1.121,12.023,12.023,0,0,1,4.366,3.215,14.342,14.342,0,0,1,2.743,5.044,21.413,21.413,0,0,1,.944,6.549,21.339,21.339,0,0,1-.944,6.579,14.378,14.378,0,0,1-2.743,5.015,12.023,12.023,0,0,1-4.366,3.215A14.228,14.228,0,0,1,159.3.708Zm0-4.071a8.735,8.735,0,0,0,6.372-2.36q2.419-2.36,2.419-7.316v-4.366q0-4.956-2.419-7.316a8.735,8.735,0,0,0-6.372-2.36,8.735,8.735,0,0,0-6.372,2.36q-2.419,2.36-2.419,7.316v4.366q0,4.956,2.419,7.316A8.735,8.735,0,0,0,159.3-3.363ZM191.691,0,180.776-30.444h4.779L189.921-17.7l4.72,13.747h.236L199.6-17.7l4.366-12.744h4.661L197.709,0Zm38.94.708A14.965,14.965,0,0,1,224.7-.413a12.45,12.45,0,0,1-4.484-3.215,14.6,14.6,0,0,1-2.862-5.015,19.983,19.983,0,0,1-1-6.519,19.912,19.912,0,0,1,1.033-6.608,15.21,15.21,0,0,1,2.861-5.044,12.3,12.3,0,0,1,4.4-3.215,14.075,14.075,0,0,1,5.694-1.121,13.511,13.511,0,0,1,5.576,1.121,12.531,12.531,0,0,1,4.277,3.1,13.671,13.671,0,0,1,2.714,4.691,18.034,18.034,0,0,1,.944,5.959v2.242H221.309v1.416a10.4,10.4,0,0,0,.649,3.717,8.463,8.463,0,0,0,1.859,2.95,8.243,8.243,0,0,0,2.95,1.918,10.559,10.559,0,0,0,3.865.678,9.735,9.735,0,0,0,5.31-1.416,9.152,9.152,0,0,0,3.422-3.894l3.481,2.36a11.323,11.323,0,0,1-4.514,5.045A14.229,14.229,0,0,1,230.631.708Zm-.295-27.966a9.04,9.04,0,0,0-3.6.708,8.792,8.792,0,0,0-2.862,1.947,8.9,8.9,0,0,0-1.888,2.92A9.766,9.766,0,0,0,221.309-18v.413h17.464v-.649a10.346,10.346,0,0,0-.62-3.658,8.866,8.866,0,0,0-1.711-2.861,7.286,7.286,0,0,0-2.655-1.858A8.918,8.918,0,0,0,230.336-27.258Zm54.634-3.186h4.189L292.64-4.13h.531l5.192-26.314h5.192L308.747-4.13h.531l3.481-26.314h4.071L312.169,0h-6.136l-4.838-25.488h-.472L295.767,0h-6.136Zm53.218-6.726a3.937,3.937,0,0,1-2.891-.855,2.976,2.976,0,0,1-.826-2.154v-.944a2.976,2.976,0,0,1,.826-2.154,3.937,3.937,0,0,1,2.891-.855,3.936,3.936,0,0,1,2.891.855,2.976,2.976,0,0,1,.826,2.154v.944a2.976,2.976,0,0,1-.826,2.154A3.936,3.936,0,0,1,338.188-37.17Zm-13.334,33.1h10.974v-22.3H324.854v-4.071h15.694V-4.071h10.266V0h-25.96ZM373.175,0q-3.481,0-5.1-1.943a7.543,7.543,0,0,1-1.622-5V-26.373H356.3v-4.071h7.552a3,3,0,0,0,2.154-.62,3,3,0,0,0,.62-2.153v-7.965h4.543v10.738h13.865v4.071H371.169v22.3h13.865V0Zm22.007-43.66h4.72v18.172h.236a12.114,12.114,0,0,1,1.18-2.153,7.552,7.552,0,0,1,1.741-1.8,8.67,8.67,0,0,1,2.448-1.239,10.46,10.46,0,0,1,3.3-.472,10.094,10.094,0,0,1,7.67,3.038q2.891,3.039,2.891,8.585V0h-4.72V-18.7q0-4.189-1.829-6.225a6.847,6.847,0,0,0-5.369-2.035,10.94,10.94,0,0,0-2.773.354,7.933,7.933,0,0,0-2.419,1.062,5.445,5.445,0,0,0-1.711,1.829,5.088,5.088,0,0,0-.649,2.6V0h-4.72Z" transform="translate(1016.063 522.712)"/><path class="b" d="M80.1,3.2A79.665,79.665,0,0,1,51.264-1.735,59.048,59.048,0,0,1,29.5-16.02a63.369,63.369,0,0,1-13.751-22.7,88.681,88.681,0,0,1-4.806-30.171,88.681,88.681,0,0,1,4.806-30.171A63.369,63.369,0,0,1,29.5-121.752a59.048,59.048,0,0,1,21.76-14.285A79.666,79.666,0,0,1,80.1-140.976a79.665,79.665,0,0,1,28.836,4.939,59.048,59.048,0,0,1,21.76,14.285,63.37,63.37,0,0,1,13.751,22.695,88.681,88.681,0,0,1,4.806,30.171,88.681,88.681,0,0,1-4.806,30.171A63.369,63.369,0,0,1,130.7-16.02a59.048,59.048,0,0,1-21.76,14.285A79.665,79.665,0,0,1,80.1,3.2Zm0-29.37q13.35,0,20.826-8.277t7.476-23.5V-79.833q0-15.219-7.476-23.5T80.1-111.606q-13.35,0-20.826,8.277T51.8-79.833v21.894q0,15.219,7.476,23.5T80.1-26.166ZM240.3,3.2a79.665,79.665,0,0,1-28.836-4.939A59.048,59.048,0,0,1,189.7-16.02a63.369,63.369,0,0,1-13.75-22.7,88.681,88.681,0,0,1-4.806-30.171,88.681,88.681,0,0,1,4.806-30.171,63.369,63.369,0,0,1,13.75-22.695,59.048,59.048,0,0,1,21.76-14.285,79.666,79.666,0,0,1,28.836-4.939,79.665,79.665,0,0,1,28.836,4.939,59.048,59.048,0,0,1,21.76,14.285,63.369,63.369,0,0,1,13.751,22.695,88.681,88.681,0,0,1,4.806,30.171,88.681,88.681,0,0,1-4.806,30.171A63.369,63.369,0,0,1,290.9-16.02a59.048,59.048,0,0,1-21.76,14.285A79.665,79.665,0,0,1,240.3,3.2Zm0-29.37q13.35,0,20.826-8.277t7.476-23.5V-79.833q0-15.219-7.476-23.5T240.3-111.606q-13.35,0-20.826,8.277T212-79.833v21.894q0,15.219,7.476,23.5T240.3-26.166Zm99.057-4.806h40.584V-106.8H336.687v-30.972h43.254V-157.8q0-17.622,10.28-28.7t31.907-11.08h46.725v30.972H419.457v28.836h49.395V-106.8H419.457v75.828h43.254V0H339.357Z" transform="translate(531.303 675.712)"/><path class="b" d="M585.531-25.344h-1.869a53.42,53.42,0,0,1-14.818,20.6Q559.365,3.2,542.811,3.2a50.427,50.427,0,0,1-20.959-4.272,42.515,42.515,0,0,1-16.287-13.083q-6.809-8.811-10.68-22.428t-3.872-32.307q0-18.69,3.872-32.307t10.68-22.428A42.516,42.516,0,0,1,521.852-136.7a50.428,50.428,0,0,1,20.959-4.272,46.011,46.011,0,0,1,14.685,2.155,39.06,39.06,0,0,1,11.348,5.924,39.057,39.057,0,0,1,8.544,9.022,67.1,67.1,0,0,1,6.275,11.448h1.869V-197.58h39.516V0H585.531ZM559.9-27.768a31.884,31.884,0,0,0,18.023-5.04q7.609-5.04,7.609-15.916V-89.049q0-10.876-7.609-15.916A31.884,31.884,0,0,0,559.9-110q-13.35,0-20.559,8.091T532.131-79.5v21.218q0,14.326,7.209,22.418T559.9-27.768ZM724.638,3.2q-34.71,0-52.6-19.224T654.15-68.352a92.178,92.178,0,0,1,4.673-30.3,65.061,65.061,0,0,1,13.35-22.962,56.457,56.457,0,0,1,21.093-14.418,74.923,74.923,0,0,1,27.9-4.939,73.884,73.884,0,0,1,27.768,4.939,57.756,57.756,0,0,1,20.826,14.018,62.74,62.74,0,0,1,13.216,22.028,84.9,84.9,0,0,1,4.673,28.969v11.748H693.4v2.4q0,13.35,8.277,21.493t24.3,8.144q12.282,0,21.093-4.673a49.967,49.967,0,0,0,15.219-12.416l21.36,23.229q-8.01,9.879-22.428,17.088T724.638,3.2Zm-3.2-115.878q-12.816,0-20.425,7.877T693.4-83.571v2.136h55.536v-2.136q0-13.617-7.342-21.36T721.434-112.674Zm99.324,81.7h31.773V-106.8H820.758v-30.972h71.289V-98.79h1.869a78.888,78.888,0,0,1,5.206-14.552,47.406,47.406,0,0,1,8.544-12.549,37.81,37.81,0,0,1,12.682-8.678,44.5,44.5,0,0,1,17.622-3.2h13.083v36.312h-29.37q-14.685,0-22.161,8.644t-7.476,21.147v40.7h45.39V0H820.758ZM1045.038,3.2q-34.71,0-52.6-19.224T974.55-68.352a92.178,92.178,0,0,1,4.673-30.3,65.061,65.061,0,0,1,13.35-22.962,56.457,56.457,0,0,1,21.093-14.418,74.923,74.923,0,0,1,27.9-4.939,73.883,73.883,0,0,1,27.768,4.939,57.755,57.755,0,0,1,20.826,14.018,62.74,62.74,0,0,1,13.217,22.028,84.9,84.9,0,0,1,4.672,28.969v11.748H1013.8v2.4q0,13.35,8.277,21.493t24.3,8.144q12.282,0,21.093-4.673a49.969,49.969,0,0,0,15.219-12.416l21.36,23.229q-8.01,9.879-22.428,17.088T1045.038,3.2Zm-3.2-115.878q-12.816,0-20.425,7.877T1013.8-83.571v2.136h55.536v-2.136q0-13.617-7.342-21.36T1041.834-112.674Z" transform="translate(531.303 730.712)"/><path class="b" d="M4.9-4.071H15.163v-22.3H4.307v-4.071H15.163V-36.7a7.571,7.571,0,0,1,1.622-5.015q1.623-1.947,5.1-1.947H32.1v4.071H19.883v9.145H32.1v4.071H19.883v22.3H30.739V0H4.9ZM64.605,0a4.884,4.884,0,0,1-3.953-1.416,6.877,6.877,0,0,1-1.475-3.54h-.295A8.528,8.528,0,0,1,55.667-.8a10.385,10.385,0,0,1-5.93,1.5A11.149,11.149,0,0,1,42.126-1.77a8.549,8.549,0,0,1-2.832-6.785,7.672,7.672,0,0,1,3.1-6.549q3.1-2.3,10-2.3h6.49V-20.4a6.348,6.348,0,0,0-1.888-5.014,7.84,7.84,0,0,0-5.369-1.671,9.375,9.375,0,0,0-5.015,1.209A9.09,9.09,0,0,0,43.483-22.6L40.3-24.957a10.735,10.735,0,0,1,1.593-2.311,10.171,10.171,0,0,1,2.478-2,13.555,13.555,0,0,1,3.363-1.377,16.085,16.085,0,0,1,4.189-.509q5.369,0,8.526,2.72A9.457,9.457,0,0,1,63.6-20.864V-4.071H67.85V0ZM50.563-3.245A11.788,11.788,0,0,0,53.9-3.687a9.757,9.757,0,0,0,2.625-1.18,5.525,5.525,0,0,0,1.741-1.77,4.227,4.227,0,0,0,.619-2.213v-5.015h-6.49q-4.248,0-6.195,1.18A3.772,3.772,0,0,0,44.25-9.263v1.239a4.116,4.116,0,0,0,1.682,3.569A7.8,7.8,0,0,0,50.563-3.245ZM90.388-37.17a3.936,3.936,0,0,1-2.891-.855,2.976,2.976,0,0,1-.826-2.154v-.944a2.976,2.976,0,0,1,.826-2.154,3.936,3.936,0,0,1,2.891-.855,3.936,3.936,0,0,1,2.891.855,2.976,2.976,0,0,1,.826,2.154v.944a2.976,2.976,0,0,1-.826,2.154A3.936,3.936,0,0,1,90.388-37.17ZM77.054-4.071H88.028v-22.3H77.054v-4.071H92.748V-4.071h10.266V0H77.054Zm33.866,0h10.62V-39.589H110.92V-43.66h15.34V-4.071h10.62V0H110.92ZM166.5-4.956h-.236a12.115,12.115,0,0,1-1.18,2.154,7.552,7.552,0,0,1-1.74,1.8A8.671,8.671,0,0,1,160.893.236a10.46,10.46,0,0,1-3.3.472,10.094,10.094,0,0,1-7.67-3.039q-2.891-3.038-2.891-8.584V-30.444h4.72v18.7q0,4.189,1.829,6.225a6.847,6.847,0,0,0,5.369,2.035,10.941,10.941,0,0,0,2.773-.354A7.933,7.933,0,0,0,164.138-4.9a5.541,5.541,0,0,0,1.711-1.8,5.047,5.047,0,0,0,.649-2.626V-30.444h4.72V0H166.5Zm15.045.885h8.909v-22.3h-8.909v-4.071h13.629v7.67h.295a10.128,10.128,0,0,1,3.57-5.635,10.609,10.609,0,0,1,6.7-2.035h4.248v4.72h-5.723a9.223,9.223,0,0,0-6.578,2.354,8.08,8.08,0,0,0-2.508,6.178V-4.071h11.8V0H181.543ZM230.631.708A14.965,14.965,0,0,1,224.7-.413a12.45,12.45,0,0,1-4.484-3.215,14.6,14.6,0,0,1-2.862-5.015,19.983,19.983,0,0,1-1-6.519,19.912,19.912,0,0,1,1.033-6.608,15.21,15.21,0,0,1,2.861-5.044,12.3,12.3,0,0,1,4.4-3.215,14.075,14.075,0,0,1,5.694-1.121,13.511,13.511,0,0,1,5.576,1.121,12.531,12.531,0,0,1,4.277,3.1,13.671,13.671,0,0,1,2.714,4.691,18.034,18.034,0,0,1,.944,5.959v2.242H221.309v1.416a10.4,10.4,0,0,0,.649,3.717,8.463,8.463,0,0,0,1.859,2.95,8.243,8.243,0,0,0,2.95,1.918,10.559,10.559,0,0,0,3.865.678,9.735,9.735,0,0,0,5.31-1.416,9.152,9.152,0,0,0,3.422-3.894l3.481,2.36a11.323,11.323,0,0,1-4.514,5.045A14.229,14.229,0,0,1,230.631.708Zm-.295-27.966a9.04,9.04,0,0,0-3.6.708,8.792,8.792,0,0,0-2.862,1.947,8.9,8.9,0,0,0-1.888,2.92A9.766,9.766,0,0,0,221.309-18v.413h17.464v-.649a10.346,10.346,0,0,0-.62-3.658,8.866,8.866,0,0,0-1.711-2.861,7.286,7.286,0,0,0-2.655-1.858A8.918,8.918,0,0,0,230.336-27.258Z" transform="translate(756.309 732.76)"/></g></svg>