<svg xmlns="http://www.w3.org/2000/svg" width="288.873" height="93.999" viewBox="0 0 288.873 93.999"><defs><style>.a{fill:#fff;mix-blend-mode:difference;isolation:isolate;}</style></defs><path class="a" d="M535.263-116.946h-.875a25.009,25.009,0,0,1-6.937,9.645q-4.438,3.72-12.187,3.72a23.608,23.608,0,0,1-9.812-2,19.9,19.9,0,0,1-7.625-6.125,30.778,30.778,0,0,1-5-10.5,55.709,55.709,0,0,1-1.812-15.125,55.709,55.709,0,0,1,1.812-15.125,30.778,30.778,0,0,1,5-10.5,19.9,19.9,0,0,1,7.625-6.125,23.608,23.608,0,0,1,9.812-2,21.541,21.541,0,0,1,6.875,1.009,18.287,18.287,0,0,1,5.313,2.773,18.285,18.285,0,0,1,4,4.224,31.412,31.412,0,0,1,2.938,5.359h.875V-197.58h18.5l-.029,94H535.263Zm-12-1.135a14.927,14.927,0,0,0,8.437-2.359q3.562-2.359,3.562-7.451V-146.77q0-5.092-3.562-7.451a14.927,14.927,0,0,0-8.437-2.359q-6.25,0-9.625,3.788t-3.375,10.5v9.934q0,6.707,3.375,10.5T523.263-118.081Zm77.124,14.5q-16.25,0-24.625-9t-8.375-24.5a43.153,43.153,0,0,1,2.188-14.187,30.459,30.459,0,0,1,6.25-10.75,26.432,26.432,0,0,1,9.875-6.75,35.075,35.075,0,0,1,13.062-2.312,34.59,34.59,0,0,1,13,2.312,27.039,27.039,0,0,1,9.75,6.562,29.374,29.374,0,0,1,6.188,10.312,39.747,39.747,0,0,1,2.188,13.562v5.5H585.762v1.125a13.483,13.483,0,0,0,3.875,10.062q3.875,3.812,11.375,3.812a20.816,20.816,0,0,0,9.875-2.187,23.393,23.393,0,0,0,7.125-5.812l10,10.875a31.215,31.215,0,0,1-10.5,8Q610.762-103.581,600.387-103.581Zm-1.5-54.25a12.68,12.68,0,0,0-9.562,3.687q-3.562,3.687-3.562,9.937v1h26v-1q0-6.375-3.437-10T598.887-157.83Zm46.5,38.25h14.875v-35.5H645.387v-14.5h33.375v18.25h.875a36.937,36.937,0,0,1,2.438-6.812,22.192,22.192,0,0,1,4-5.875,17.7,17.7,0,0,1,5.937-4.062,20.834,20.834,0,0,1,8.25-1.5h6.125v17h-13.75q-6.875,0-10.375,4.047a14.609,14.609,0,0,0-3.5,9.9v19.053h21.25v16H645.387Zm105,16q-16.25,0-24.625-9t-8.375-24.5a43.155,43.155,0,0,1,2.188-14.187,30.458,30.458,0,0,1,6.25-10.75,26.431,26.431,0,0,1,9.875-6.75,35.076,35.076,0,0,1,13.062-2.312,34.589,34.589,0,0,1,13,2.312,27.039,27.039,0,0,1,9.75,6.562,29.373,29.373,0,0,1,6.187,10.312,39.747,39.747,0,0,1,2.187,13.562v5.5H735.761v1.125a13.483,13.483,0,0,0,3.875,10.062q3.875,3.812,11.375,3.812a20.816,20.816,0,0,0,9.875-2.187,23.393,23.393,0,0,0,7.125-5.812l10,10.875a31.215,31.215,0,0,1-10.5,8Q760.761-103.581,750.386-103.581Zm-1.5-54.25a12.68,12.68,0,0,0-9.562,3.687q-3.562,3.687-3.562,9.937v1h26v-1q0-6.375-3.437-10T748.886-157.83Z" transform="translate(-491.013 197.58)"/></svg>