<svg xmlns="http://www.w3.org/2000/svg" width="8606.098" height="2006.468" viewBox="0 0 8606.098 2006.468"><defs><style>.a{mix-blend-mode:difference;isolation:isolate;}.b{fill:#fff;}</style></defs><g class="a" transform="translate(-542.251 -478.132)"><path class="b" d="M110.851,10.481q-16.2,0-22.678-6.711T81.693-13.123v-7.405q0-10.182,6.479-16.893t22.678-6.711q16.2,0,22.678,6.711t6.479,16.893v7.405q0,10.182-6.479,16.893T110.851,10.481ZM6.254,270.122H92.338V95.176H6.254V63.242h123.11v206.88h80.53v31.934H6.254Zm273.989,31.934V63.242h37.025v38.877h1.851a95.034,95.034,0,0,1,9.256-16.893A59.24,59.24,0,0,1,342.029,71.11a68.014,68.014,0,0,1,19.207-9.719q11.108-3.7,25.918-3.7,37.488,0,60.166,23.835T470,148.863V302.056H432.973V155.343q0-32.86-14.347-48.827T376.509,90.548a85.821,85.821,0,0,0-21.753,2.777,62.231,62.231,0,0,0-18.976,8.331A42.718,42.718,0,0,0,322.359,116a39.908,39.908,0,0,0-5.091,20.364V302.056Zm547.052-31.934H910.6V-8.495H827.294V-40.429H947.627V270.122h83.307v31.934H827.294Zm379.511,37.488q-24.992,0-45.125-8.794a94.31,94.31,0,0,1-34.249-25.224q-14.116-16.43-21.521-39.34t-7.405-51.6q0-28.232,7.405-51.373t21.521-39.571a94.31,94.31,0,0,1,34.249-25.224q20.133-8.794,45.125-8.794t45.125,8.794a94.309,94.309,0,0,1,34.249,25.224q14.116,16.43,21.521,39.571t7.405,51.373q0,28.695-7.405,51.6t-21.521,39.34a94.309,94.309,0,0,1-34.249,25.224Q1231.8,307.61,1206.806,307.61Zm0-31.935q31.009,0,49.984-18.513t18.975-57.39V165.525q0-38.877-18.975-57.39t-49.984-18.513q-31.009,0-49.984,18.513t-18.976,57.39v34.249q0,38.877,18.976,57.39T1206.806,275.676Zm254.087,26.381L1375.272,63.242h37.488l34.249,99.969,37.025,107.837h1.851l37.026-107.837,34.249-99.969h36.563L1508.1,302.056Zm305.46,5.554q-25.918,0-46.513-8.794a97.661,97.661,0,0,1-35.174-25.224,114.526,114.526,0,0,1-22.447-39.34q-7.868-22.91-7.868-51.141,0-28.695,8.1-51.836T1684.9,91.705a96.462,96.462,0,0,1,34.48-25.224q20.133-8.794,44.662-8.794,24.067,0,43.736,8.794a98.3,98.3,0,0,1,33.554,24.3,107.244,107.244,0,0,1,21.29,36.794q7.4,21.29,7.405,46.745v17.587h-176.8v11.108a81.553,81.553,0,0,0,5.091,29.158,66.386,66.386,0,0,0,14.579,23.141,64.662,64.662,0,0,0,23.141,15.042,82.828,82.828,0,0,0,30.315,5.322q24.067,0,41.654-11.108a71.788,71.788,0,0,0,26.844-30.546l27.306,18.513q-10.645,24.067-35.406,39.571T1766.353,307.61Zm-2.314-219.376a70.914,70.914,0,0,0-28.232,5.554,68.966,68.966,0,0,0-22.447,15.273,69.8,69.8,0,0,0-14.81,22.91,76.608,76.608,0,0,0-5.322,28.926v3.24h136.994v-5.091a81.159,81.159,0,0,0-4.86-28.695,69.554,69.554,0,0,0-13.422-22.447,57.152,57.152,0,0,0-20.827-14.579A69.958,69.958,0,0,0,1764.039,88.234Zm428.57-24.992h32.86l27.306,206.417h4.166l40.728-206.417H2338.4l40.728,206.417h4.165L2410.6,63.242h31.935l-36.563,238.814h-48.133l-37.951-199.938h-3.7l-38.877,199.938h-48.133Zm417.463-52.761q-16.2,0-22.678-6.711t-6.479-16.893v-7.405q0-10.182,6.479-16.893t22.678-6.711q16.2,0,22.678,6.711t6.479,16.893v7.405q0,10.182-6.479,16.893T2610.072,10.481Zm-104.6,259.641h86.084V95.176h-86.084V63.242h123.11v206.88h80.53v31.934h-203.64Zm379.048,31.934q-27.306,0-40.034-15.24t-12.728-39.249V95.176h-79.6V63.242H2811.4q12.033,0,16.893-4.86t4.86-16.893v-62.48h35.637V63.242H2977.55V95.176H2868.788V270.122H2977.55v31.934ZM3057.155-40.429h37.025V102.119h1.851a95.022,95.022,0,0,1,9.256-16.893,59.245,59.245,0,0,1,13.653-14.116,68.013,68.013,0,0,1,19.207-9.719q11.108-3.7,25.918-3.7,37.488,0,60.166,23.835t22.678,67.34V302.056h-37.025V155.343q0-32.86-14.348-48.827t-42.116-15.967a85.822,85.822,0,0,0-21.753,2.777,62.234,62.234,0,0,0-18.976,8.331A42.715,42.715,0,0,0,3099.271,116a39.908,39.908,0,0,0-5.091,20.364V302.056h-37.025Z" transform="translate(4301.819 525.779)"/><path class="b" d="M553.41,1377.447q-125.667,0-226.2-38.747t-170.7-112.053q-70.164-73.306-107.864-178.028t-37.7-236.673q0-131.95,37.7-236.673T156.511,397.244q70.164-73.306,170.7-112.053t226.2-38.747q125.667,0,226.2,38.747t170.7,112.053q70.164,73.306,107.864,178.028t37.7,236.673q0,131.95-37.7,236.673T950.308,1226.646q-70.164,73.306-170.7,112.053T553.41,1377.447Zm0-230.39q104.723,0,163.367-64.928t58.645-184.312V726.073q0-119.384-58.645-184.312T553.41,476.833q-104.723,0-163.367,64.928T331.4,726.073V897.818q0,119.384,58.645,184.312T553.41,1147.057Zm1256.67,230.39q-125.667,0-226.2-38.747t-170.7-112.053q-70.164-73.306-107.864-178.028t-37.7-236.673q0-131.95,37.7-236.673t107.864-178.028q70.164-73.306,170.7-112.053t226.2-38.747q125.667,0,226.2,38.747t170.7,112.053q70.165,73.306,107.865,178.028t37.7,236.673q0,131.95-37.7,236.673t-107.865,178.028q-70.164,73.306-170.7,112.053T1810.08,1377.447Zm0-230.39q104.723,0,163.367-64.928t58.645-184.312V726.073q0-119.384-58.645-184.312T1810.08,476.833q-104.723,0-163.367,64.928t-58.645,184.312V897.818q0,119.384,58.645,184.312T1810.08,1147.057Zm777.041-37.7h318.356V514.533h-339.3V271.577h339.3V114.493q0-138.234,80.636-225.153T3236.4-197.58H3602.93V45.376H3215.457v226.2H3602.93V514.533H3215.457v594.824h339.3v242.956H2587.121Z" transform="translate(531.303 675.712)"/><path class="b" d="M1232.449,1153.5h-14.661q-41.889,99.29-116.242,161.616t-204.209,62.326q-90.062,0-164.414-33.511T605.161,1241.308q-53.409-69.117-83.778-175.934t-30.37-253.429q0-146.612,30.37-253.429t83.778-175.934q53.409-69.117,127.762-102.628t164.414-33.511q64.928,0,115.195,16.9t89.014,46.471a306.385,306.385,0,0,1,67.022,70.77,526.377,526.377,0,0,1,49.22,89.8h14.661V-197.58h309.979V1352.313H1232.449Zm-201.067-19.014q81.684,0,141.375-39.533t59.692-124.849V653.781q0-85.316-59.692-124.849T1031.381,489.4q-104.722,0-161.273,63.472t-56.55,175.852V895.167q0,112.38,56.55,175.852T1031.381,1134.491Zm1292.276,242.956q-272.279,0-412.607-150.8T1770.722,816.134q0-131.95,36.653-237.72T1912.1,398.291q68.07-74.353,165.462-113.1t218.87-38.747q121.478,0,217.823,38.747T2677.62,395.149q67.022,71.211,103.675,172.792t36.653,227.248v92.156H2078.607V906.2q0,104.723,64.928,168.6t190.6,63.881q96.345,0,165.461-36.653a391.965,391.965,0,0,0,119.384-97.392l167.556,182.217Q2723.7,1264.347,2610.6,1320.9T2323.658,1377.447Zm-25.134-908.992q-100.534,0-160.226,61.786T2078.607,696.75v16.756h435.646V696.75q0-106.817-57.6-167.556T2298.524,468.455Zm779.136,640.9H3326.9V514.533H3077.66V271.577h559.218v305.79h14.662a618.863,618.863,0,0,1,40.841-114.148A371.87,371.87,0,0,1,3759.4,364.78q40.841-42.936,99.486-68.07t138.233-25.133h102.628V556.422h-230.39q-115.195,0-173.839,67.808t-58.645,165.887v319.24h356.057v242.956H3077.66ZM4837,1377.447q-272.278,0-412.606-150.8T4284.063,816.134q0-131.95,36.653-237.72t104.722-180.123q68.069-74.353,165.462-113.1t218.87-38.747q121.478,0,217.822,38.747t163.368,109.959q67.022,71.211,103.676,172.792t36.652,227.248v92.156H4591.948V906.2q0,104.723,64.928,168.6t190.6,63.881q96.346,0,165.462-36.653a391.97,391.97,0,0,0,119.384-97.392l167.556,182.217q-62.833,77.495-175.934,134.045T4837,1377.447Zm-25.133-908.992q-100.534,0-160.225,61.786T4591.948,696.75v16.756h435.645V696.75q0-106.817-57.6-167.556T4811.865,468.455Z" transform="translate(3817.06 1107.153)"/><path class="b" d="M8.935,270.122h80.53V95.176H4.307V63.242H89.466V14.183q0-24.067,12.728-39.34t40.034-15.273h80.068V-8.495h-95.8V63.242h95.8V95.176h-95.8V270.122H211.65v31.934H8.935Zm468.373,31.934q-21.752,0-31.009-11.108t-11.57-27.769h-2.314q-7.868,20.827-25.224,32.629t-46.513,11.8q-37.488,0-59.7-19.438t-22.215-53.224q0-33.323,24.3-51.373t78.448-18.05h50.91V142.066q0-26.222-14.81-39.332T375.488,89.623q-24.067,0-39.34,9.488A71.309,71.309,0,0,0,311.619,124.8l-24.992-18.513a84.211,84.211,0,0,1,12.5-18.126A79.784,79.784,0,0,1,318.561,72.48a106.327,106.327,0,0,1,26.381-10.8,126.181,126.181,0,0,1,32.86-3.992q42.117,0,66.877,21.337t24.761,59.367v131.73h33.323v31.934ZM367.157,276.6a92.472,92.472,0,0,0,26.149-3.471,76.534,76.534,0,0,0,20.6-9.256,43.341,43.341,0,0,0,13.653-13.885,33.161,33.161,0,0,0,4.86-17.356v-39.34H381.5q-33.323,0-48.6,9.256t-15.273,26.843v9.719q0,18.513,13.19,28T367.157,276.6ZM679.56,10.481q-16.2,0-22.678-6.711T650.4-13.123v-7.405q0-10.182,6.479-16.893t22.678-6.711q16.2,0,22.678,6.711t6.479,16.893v7.405q0,10.182-6.479,16.893T679.56,10.481Zm-104.6,259.641h86.084V95.176H574.962V63.242h123.11v206.88H778.6v31.934H574.962Zm265.658,0h83.307V-8.495H840.62V-40.429H960.953V270.122h83.307v31.934H840.62ZM1276.6,263.18h-1.851a95.031,95.031,0,0,1-9.256,16.893,59.238,59.238,0,0,1-13.653,14.116,68.014,68.014,0,0,1-19.207,9.719q-11.108,3.7-25.918,3.7-37.488,0-60.166-23.835t-22.678-67.34V63.242h37.026V209.955q0,32.86,14.347,48.827t42.116,15.967a85.821,85.821,0,0,0,21.752-2.777,62.231,62.231,0,0,0,18.976-8.331,43.465,43.465,0,0,0,13.422-14.116q5.091-8.562,5.091-20.6V63.242h37.026V302.056H1276.6Zm118.019,6.942H1464.5V95.176h-69.886V63.242h106.911v60.166h2.314q7.4-28.232,28-44.2t52.53-15.967h33.323v37.026H1572.8q-31.935,0-51.6,18.462t-19.67,48.466V270.122h92.564v31.934H1394.614Zm385.065,37.488q-25.918,0-46.513-8.794a97.661,97.661,0,0,1-35.174-25.224,114.526,114.526,0,0,1-22.447-39.34q-7.868-22.91-7.868-51.141,0-28.695,8.1-51.836t22.447-39.571a96.462,96.462,0,0,1,34.48-25.224q20.133-8.794,44.662-8.794,24.067,0,43.736,8.794a98.3,98.3,0,0,1,33.554,24.3,107.244,107.244,0,0,1,21.29,36.794q7.4,21.29,7.405,46.745v17.587h-176.8v11.108a81.553,81.553,0,0,0,5.091,29.158,66.386,66.386,0,0,0,14.579,23.141,64.662,64.662,0,0,0,23.141,15.042,82.828,82.828,0,0,0,30.315,5.322q24.067,0,41.654-11.108a71.788,71.788,0,0,0,26.844-30.546l27.306,18.513q-10.645,24.067-35.406,39.571T1779.679,307.61Zm-2.314-219.376a70.914,70.914,0,0,0-28.232,5.554,68.966,68.966,0,0,0-22.447,15.273,69.8,69.8,0,0,0-14.81,22.91,76.608,76.608,0,0,0-5.322,28.926v3.24h136.994v-5.091a81.159,81.159,0,0,0-4.86-28.695,69.554,69.554,0,0,0-13.422-22.447,57.152,57.152,0,0,0-20.827-14.579A69.958,69.958,0,0,0,1777.365,88.234Z" transform="translate(2250.883 2173.476)"/></g></svg>