<svg xmlns="http://www.w3.org/2000/svg" width="215.374" height="93.499" viewBox="0 0 215.374 93.499"><defs><style>.a{fill:#fff;stroke:rgba(0,0,0,0);stroke-miterlimit:10;mix-blend-mode:difference;isolation:isolate;}</style></defs><path class="a" d="M153.749,92.5V78h19V42.5H152.5V28h20.25V18.625q0-8.25,4.812-13.437T192.5,0h21.875V14.5H191.248V28h23.126V42.5H191.248V78H211.5V92.5ZM93.875,90.187A27.642,27.642,0,0,1,83.687,83.5,29.665,29.665,0,0,1,77.25,72.875,41.512,41.512,0,0,1,75,58.749a41.51,41.51,0,0,1,2.25-14.125A29.665,29.665,0,0,1,83.687,34a27.641,27.641,0,0,1,10.188-6.688A37.293,37.293,0,0,1,107.375,25a37.3,37.3,0,0,1,13.5,2.312A27.645,27.645,0,0,1,131.062,34,29.667,29.667,0,0,1,137.5,44.625a41.532,41.532,0,0,1,2.25,14.125,41.534,41.534,0,0,1-2.25,14.125A29.667,29.667,0,0,1,131.062,83.5a27.645,27.645,0,0,1-10.187,6.688,37.3,37.3,0,0,1-13.5,2.312A37.293,37.293,0,0,1,93.875,90.187Zm3.749-47.562q-3.5,3.875-3.5,11v10.25q0,7.125,3.5,11t9.751,3.875q6.249,0,9.75-3.875t3.5-11V53.625q0-7.125-3.5-11t-9.75-3.875Q101.124,38.75,97.624,42.625ZM18.875,90.187A27.645,27.645,0,0,1,8.688,83.5,29.667,29.667,0,0,1,2.25,72.875,41.512,41.512,0,0,1,0,58.749,41.51,41.51,0,0,1,2.25,44.625,29.667,29.667,0,0,1,8.688,34a27.645,27.645,0,0,1,10.187-6.688A37.293,37.293,0,0,1,32.375,25a37.3,37.3,0,0,1,13.5,2.312A27.645,27.645,0,0,1,56.062,34,29.667,29.667,0,0,1,62.5,44.625a41.51,41.51,0,0,1,2.25,14.125A41.512,41.512,0,0,1,62.5,72.875,29.667,29.667,0,0,1,56.062,83.5a27.645,27.645,0,0,1-10.187,6.688,37.3,37.3,0,0,1-13.5,2.312A37.293,37.293,0,0,1,18.875,90.187Zm3.75-47.562q-3.5,3.875-3.5,11v10.25q0,7.125,3.5,11t9.75,3.875q6.25,0,9.75-3.875t3.5-11V53.625q0-7.125-3.5-11t-9.75-3.875Q26.124,38.75,22.625,42.625Z" transform="translate(0.5 0.5)"/></svg>